<svg width="650" height="113" viewBox="0 0 650 113" fill="none" xmlns="http://www.w3.org/2000/svg">
<path d="M0 13L152 61H326H500L650 13V113H0V13Z" fill="#382900"/>
<path d="M262.011 86.4053C263.558 85.9482 264.855 85.7197 265.904 85.7197C266.537 85.7197 267.123 85.7783 267.662 85.8955C268.207 86.0068 268.705 86.1855 269.156 86.4316C269.613 86.6777 269.971 87.0176 270.229 87.4512C270.492 87.8848 270.624 88.3945 270.624 88.9805C270.624 89.2969 270.574 89.6133 270.475 89.9297C270.381 90.2461 270.208 90.6006 269.956 90.9932C269.71 91.3857 269.426 91.7812 269.104 92.1797C268.781 92.5723 268.342 93.0557 267.785 93.6299C267.229 94.2041 266.648 94.7812 266.045 95.3613C265.447 95.9414 264.691 96.6562 263.777 97.5059H266.906C267.246 97.5059 267.53 97.4824 267.759 97.4355C267.993 97.3887 268.178 97.333 268.312 97.2686C268.447 97.1982 268.564 97.084 268.664 96.9258C268.764 96.7676 268.837 96.624 268.884 96.4951C268.931 96.3662 268.998 96.1641 269.086 95.8887C269.18 95.6074 269.268 95.3643 269.35 95.1592C269.443 95.083 269.584 95.0449 269.771 95.0449C269.936 95.0449 270.126 95.0713 270.343 95.124C270.56 95.1768 270.738 95.2295 270.879 95.2822L271.081 95.3613C271.081 95.6309 270.949 96.2051 270.686 97.084C270.428 97.957 270.24 98.4844 270.123 98.666C269.807 98.8887 268.579 99 266.44 99H262.116C261.999 98.918 261.882 98.6865 261.765 98.3057C261.647 97.9189 261.58 97.5439 261.562 97.1807C261.896 96.7939 262.389 96.2871 263.039 95.6602C263.689 95.0273 264.305 94.4297 264.885 93.8672C265.465 93.2988 266.039 92.7129 266.607 92.1094C267.176 91.5 267.63 90.9229 267.97 90.3779C268.31 89.833 268.479 89.3701 268.479 88.9893C268.479 88.3916 268.266 87.9404 267.838 87.6357C267.416 87.3311 266.88 87.1787 266.229 87.1787C265.661 87.1787 265.192 87.2285 264.823 87.3281C264.454 87.4219 264.138 87.5918 263.874 87.8379C263.616 88.084 263.411 88.3945 263.259 88.7695C263.106 89.1387 262.966 89.6279 262.837 90.2373C262.544 90.2373 262.21 90.1963 261.835 90.1143C261.466 90.0322 261.281 89.9502 261.281 89.8682C261.281 89.6162 261.372 89.0596 261.554 88.1982C261.735 87.3311 261.888 86.7334 262.011 86.4053ZM275.309 86.0361V96.6709C275.309 96.7588 275.312 96.8291 275.317 96.8818C275.329 96.9287 275.35 96.9844 275.379 97.0488C275.414 97.1133 275.473 97.1631 275.555 97.1982C275.637 97.2275 275.742 97.2422 275.871 97.2422C276.141 97.2422 276.372 97.2773 276.565 97.3477C276.759 97.418 276.855 97.5234 276.855 97.6641C276.855 98.4258 276.729 98.8945 276.478 99.0703C275.868 99.0234 275.145 99 274.307 99C273.504 99 272.804 99.0234 272.206 99.0703C272.048 98.9766 271.931 98.7949 271.854 98.5254C271.778 98.25 271.74 97.9629 271.74 97.6641C271.74 97.5234 271.837 97.418 272.03 97.3477C272.224 97.2773 272.455 97.2422 272.725 97.2422C272.953 97.2422 273.103 97.1953 273.173 97.1016C273.243 97.002 273.278 96.8643 273.278 96.6885V88.2158C273.278 88.04 273.243 87.9053 273.173 87.8115C273.103 87.7119 272.953 87.6621 272.725 87.6621C272.455 87.6621 272.224 87.627 272.03 87.5566C271.837 87.4863 271.74 87.3809 271.74 87.2402C271.74 86.625 271.808 86.1562 271.942 85.834C272.522 85.8809 273.079 85.9043 273.612 85.9043C274.11 85.9043 274.603 85.8809 275.089 85.834C275.235 85.834 275.309 85.9014 275.309 86.0361ZM279.896 91.5117C280.84 91.1074 281.912 90.9053 283.113 90.9053C283.758 90.9053 284.332 90.9961 284.836 91.1777C285.346 91.3535 285.75 91.582 286.049 91.8633C286.354 92.1387 286.603 92.4639 286.796 92.8389C286.995 93.2139 287.13 93.5771 287.2 93.9287C287.276 94.2803 287.314 94.6377 287.314 95.001C287.314 95.6396 287.224 96.2051 287.042 96.6973C286.86 97.1895 286.614 97.5938 286.304 97.9102C285.999 98.2266 285.624 98.4873 285.179 98.6924C284.733 98.8916 284.268 99.0322 283.781 99.1143C283.301 99.1963 282.773 99.2373 282.199 99.2373C280.992 99.2373 279.645 99.0117 278.156 98.5605L278.121 98.4551C278.109 98.4082 278.077 98.2852 278.024 98.0859C277.972 97.8809 277.934 97.7344 277.91 97.6465C277.887 97.5527 277.849 97.4033 277.796 97.1982C277.749 96.9932 277.711 96.8145 277.682 96.6621C277.658 96.5039 277.629 96.3135 277.594 96.0908C277.559 95.8682 277.529 95.6455 277.506 95.4229C277.506 95.376 277.682 95.3203 278.033 95.2559C278.385 95.1914 278.666 95.1592 278.877 95.1592C278.988 95.1592 279.044 95.1709 279.044 95.1943C279.243 95.7217 279.545 96.1787 279.949 96.5654C280.359 96.9463 280.808 97.2305 281.294 97.418C281.78 97.5996 282.278 97.6904 282.788 97.6904C283.187 97.6904 283.55 97.6143 283.878 97.4619C284.212 97.3037 284.481 97.0957 284.687 96.8379C284.897 96.5801 285.059 96.293 285.17 95.9766C285.287 95.6602 285.346 95.335 285.346 95.001C285.346 94.5557 285.255 94.1484 285.073 93.7793C284.892 93.4043 284.599 93.0938 284.194 92.8477C283.79 92.5957 283.31 92.4697 282.753 92.4697C282.349 92.4697 281.739 92.5723 280.925 92.7773C280.116 92.9766 279.498 93.0762 279.07 93.0762C278.707 93.0762 278.344 93.0381 277.98 92.9619C277.904 92.9443 277.866 92.5869 277.866 91.8896V87.2402C277.866 86.9473 277.904 86.6631 277.98 86.3877C278.057 86.1123 278.174 85.9277 278.332 85.834C279.328 85.8809 280.421 85.9043 281.61 85.9043C282.173 85.9043 282.765 85.8955 283.386 85.8779C284.007 85.8545 284.575 85.8311 285.091 85.8076C285.606 85.7842 285.935 85.7695 286.075 85.7637C286.134 85.834 286.233 86.2969 286.374 87.1523C286.515 88.0078 286.585 88.5205 286.585 88.6904C286.585 88.708 286.57 88.7344 286.541 88.7695C286.518 88.8047 286.471 88.8457 286.4 88.8926C286.336 88.9336 286.254 88.9717 286.154 89.0068C286.061 89.042 285.932 89.0742 285.768 89.1035C285.609 89.127 285.434 89.1387 285.24 89.1387C285.211 89.0625 285.17 88.957 285.117 88.8223C285.064 88.6875 285.023 88.585 284.994 88.5146C284.965 88.4443 284.921 88.3535 284.862 88.2422C284.804 88.1309 284.745 88.0459 284.687 87.9873C284.628 87.9229 284.546 87.8555 284.44 87.7852C284.341 87.709 284.229 87.6533 284.106 87.6182C283.989 87.5771 283.843 87.5449 283.667 87.5215C283.497 87.4922 283.307 87.4775 283.096 87.4775C282.65 87.4775 282.196 87.4805 281.733 87.4863C281.271 87.4863 280.699 87.4863 280.02 87.4863C279.938 87.4863 279.896 87.5566 279.896 87.6973V91.5117ZM288.756 93.5684C288.357 93.5684 288.158 93.2812 288.158 92.707C288.158 92.1797 288.381 91.916 288.826 91.916C289.166 91.916 289.743 91.9189 290.558 91.9248C291.378 91.9248 292.034 91.9248 292.526 91.9248H294.601C294.817 91.9248 294.97 91.9482 295.058 91.9951C295.151 92.0361 295.198 92.1211 295.198 92.25C295.198 93.1055 295.002 93.5332 294.609 93.5332H290.839C289.89 93.5332 289.195 93.5449 288.756 93.5684ZM298.107 95.1943C298.248 95.6748 298.406 96.085 298.582 96.4248C298.764 96.7646 298.939 97.0283 299.109 97.2158C299.285 97.3975 299.484 97.541 299.707 97.6465C299.93 97.7461 300.126 97.8105 300.296 97.8398C300.472 97.8633 300.68 97.875 300.92 97.875C301.688 97.875 302.35 97.4678 302.906 96.6533C303.463 95.8389 303.741 94.7812 303.741 93.4805V93.085C302.687 93.501 301.585 93.709 300.437 93.709C299.722 93.709 299.077 93.6006 298.503 93.3838C297.929 93.1611 297.463 92.8652 297.105 92.4961C296.748 92.127 296.476 91.7139 296.288 91.2568C296.101 90.7939 296.007 90.3135 296.007 89.8154C296.007 89.2939 296.106 88.793 296.306 88.3125C296.511 87.8262 296.801 87.3896 297.176 87.0029C297.551 86.6104 298.04 86.2969 298.644 86.0625C299.253 85.8281 299.93 85.7109 300.674 85.7109C301.84 85.7109 302.818 85.9951 303.609 86.5635C304.406 87.126 304.989 87.9082 305.358 88.9102C305.728 89.9062 305.912 91.1016 305.912 92.4961C305.912 93.6504 305.777 94.6641 305.508 95.5371C305.244 96.4043 304.863 97.1074 304.365 97.6465C303.873 98.1797 303.29 98.5781 302.616 98.8418C301.948 99.1055 301.192 99.2373 300.349 99.2373C299.446 99.2373 298.45 99.0703 297.36 98.7363L297.246 98.4023C296.883 97.3711 296.646 96.4072 296.534 95.5107C296.534 95.4521 296.713 95.3789 297.07 95.291C297.434 95.2031 297.724 95.1592 297.94 95.1592C298.046 95.1592 298.102 95.1709 298.107 95.1943ZM300.516 87.0381C300.123 87.0381 299.769 87.1113 299.452 87.2578C299.136 87.4043 298.881 87.6035 298.688 87.8555C298.494 88.1016 298.345 88.377 298.239 88.6816C298.14 88.9863 298.09 89.3086 298.09 89.6484C298.09 90.3574 298.321 90.9756 298.784 91.5029C299.253 92.0303 299.897 92.2939 300.718 92.2939C301.427 92.2939 302.039 92.2295 302.555 92.1006C303.07 91.9658 303.466 91.793 303.741 91.582C303.741 90.9023 303.677 90.2959 303.548 89.7627C303.425 89.2295 303.261 88.7959 303.056 88.4619C302.851 88.1279 302.604 87.8525 302.317 87.6357C302.03 87.4131 301.74 87.2578 301.447 87.1699C301.154 87.082 300.844 87.0381 300.516 87.0381ZM307.415 86.4053C308.962 85.9482 310.26 85.7197 311.309 85.7197C311.941 85.7197 312.527 85.7783 313.066 85.8955C313.611 86.0068 314.109 86.1855 314.561 86.4316C315.018 86.6777 315.375 87.0176 315.633 87.4512C315.896 87.8848 316.028 88.3945 316.028 88.9805C316.028 89.2969 315.979 89.6133 315.879 89.9297C315.785 90.2461 315.612 90.6006 315.36 90.9932C315.114 91.3857 314.83 91.7812 314.508 92.1797C314.186 92.5723 313.746 93.0557 313.189 93.6299C312.633 94.2041 312.053 94.7812 311.449 95.3613C310.852 95.9414 310.096 96.6562 309.182 97.5059H312.311C312.65 97.5059 312.935 97.4824 313.163 97.4355C313.397 97.3887 313.582 97.333 313.717 97.2686C313.852 97.1982 313.969 97.084 314.068 96.9258C314.168 96.7676 314.241 96.624 314.288 96.4951C314.335 96.3662 314.402 96.1641 314.49 95.8887C314.584 95.6074 314.672 95.3643 314.754 95.1592C314.848 95.083 314.988 95.0449 315.176 95.0449C315.34 95.0449 315.53 95.0713 315.747 95.124C315.964 95.1768 316.143 95.2295 316.283 95.2822L316.485 95.3613C316.485 95.6309 316.354 96.2051 316.09 97.084C315.832 97.957 315.645 98.4844 315.527 98.666C315.211 98.8887 313.983 99 311.845 99H307.521C307.403 98.918 307.286 98.6865 307.169 98.3057C307.052 97.9189 306.984 97.5439 306.967 97.1807C307.301 96.7939 307.793 96.2871 308.443 95.6602C309.094 95.0273 309.709 94.4297 310.289 93.8672C310.869 93.2988 311.443 92.7129 312.012 92.1094C312.58 91.5 313.034 90.9229 313.374 90.3779C313.714 89.833 313.884 89.3701 313.884 88.9893C313.884 88.3916 313.67 87.9404 313.242 87.6357C312.82 87.3311 312.284 87.1787 311.634 87.1787C311.065 87.1787 310.597 87.2285 310.228 87.3281C309.858 87.4219 309.542 87.5918 309.278 87.8379C309.021 88.084 308.815 88.3945 308.663 88.7695C308.511 89.1387 308.37 89.6279 308.241 90.2373C307.948 90.2373 307.614 90.1963 307.239 90.1143C306.87 90.0322 306.686 89.9502 306.686 89.8682C306.686 89.6162 306.776 89.0596 306.958 88.1982C307.14 87.3311 307.292 86.7334 307.415 86.4053ZM317.751 86.4053C319.298 85.9482 320.596 85.7197 321.645 85.7197C322.277 85.7197 322.863 85.7783 323.402 85.8955C323.947 86.0068 324.445 86.1855 324.896 86.4316C325.354 86.6777 325.711 87.0176 325.969 87.4512C326.232 87.8848 326.364 88.3945 326.364 88.9805C326.364 89.2969 326.314 89.6133 326.215 89.9297C326.121 90.2461 325.948 90.6006 325.696 90.9932C325.45 91.3857 325.166 91.7812 324.844 92.1797C324.521 92.5723 324.082 93.0557 323.525 93.6299C322.969 94.2041 322.389 94.7812 321.785 95.3613C321.188 95.9414 320.432 96.6562 319.518 97.5059H322.646C322.986 97.5059 323.271 97.4824 323.499 97.4355C323.733 97.3887 323.918 97.333 324.053 97.2686C324.188 97.1982 324.305 97.084 324.404 96.9258C324.504 96.7676 324.577 96.624 324.624 96.4951C324.671 96.3662 324.738 96.1641 324.826 95.8887C324.92 95.6074 325.008 95.3643 325.09 95.1592C325.184 95.083 325.324 95.0449 325.512 95.0449C325.676 95.0449 325.866 95.0713 326.083 95.124C326.3 95.1768 326.479 95.2295 326.619 95.2822L326.821 95.3613C326.821 95.6309 326.689 96.2051 326.426 97.084C326.168 97.957 325.98 98.4844 325.863 98.666C325.547 98.8887 324.319 99 322.181 99H317.856C317.739 98.918 317.622 98.6865 317.505 98.3057C317.388 97.9189 317.32 97.5439 317.303 97.1807C317.637 96.7939 318.129 96.2871 318.779 95.6602C319.43 95.0273 320.045 94.4297 320.625 93.8672C321.205 93.2988 321.779 92.7129 322.348 92.1094C322.916 91.5 323.37 90.9229 323.71 90.3779C324.05 89.833 324.22 89.3701 324.22 88.9893C324.22 88.3916 324.006 87.9404 323.578 87.6357C323.156 87.3311 322.62 87.1787 321.97 87.1787C321.401 87.1787 320.933 87.2285 320.563 87.3281C320.194 87.4219 319.878 87.5918 319.614 87.8379C319.356 88.084 319.151 88.3945 318.999 88.7695C318.847 89.1387 318.706 89.6279 318.577 90.2373C318.284 90.2373 317.95 90.1963 317.575 90.1143C317.206 90.0322 317.021 89.9502 317.021 89.8682C317.021 89.6162 317.112 89.0596 317.294 88.1982C317.476 87.3311 317.628 86.7334 317.751 86.4053ZM328.166 93.5684C327.768 93.5684 327.568 93.2812 327.568 92.707C327.568 92.1797 327.791 91.916 328.236 91.916C328.576 91.916 329.153 91.9189 329.968 91.9248C330.788 91.9248 331.444 91.9248 331.937 91.9248H334.011C334.228 91.9248 334.38 91.9482 334.468 91.9951C334.562 92.0361 334.608 92.1211 334.608 92.25C334.608 93.1055 334.412 93.5332 334.02 93.5332H330.249C329.3 93.5332 328.605 93.5449 328.166 93.5684ZM340.383 97.7256C340.664 97.7256 340.942 97.6963 341.218 97.6377C341.499 97.5732 341.771 97.4766 342.035 97.3477C342.299 97.2129 342.53 97.0518 342.729 96.8643C342.935 96.6768 343.099 96.4482 343.222 96.1787C343.345 95.9033 343.406 95.6045 343.406 95.2822C343.406 94.9072 343.356 94.5762 343.257 94.2891C343.163 94.002 343.017 93.7676 342.817 93.5859C342.624 93.4043 342.413 93.2549 342.185 93.1377C341.962 93.0205 341.687 92.9355 341.358 92.8828C341.036 92.8242 340.734 92.7861 340.453 92.7686C340.178 92.751 339.853 92.7422 339.478 92.7422C339.29 92.7422 339.021 92.751 338.669 92.7686C338.323 92.7803 338.074 92.7861 337.922 92.7861C337.846 92.7451 337.808 92.4521 337.808 91.9072C337.808 91.4854 337.881 91.207 338.027 91.0723C338.162 91.084 338.672 91.0898 339.557 91.0898C340.477 91.0898 341.183 90.8848 341.675 90.4746C342.173 90.0645 342.422 89.5811 342.422 89.0244C342.422 88.5205 342.22 88.084 341.815 87.7148C341.411 87.3398 340.866 87.1523 340.181 87.1523C339.882 87.1523 339.601 87.1758 339.337 87.2227C339.079 87.2695 338.815 87.3545 338.546 87.4775C338.276 87.5947 338.039 87.7471 337.834 87.9346C337.629 88.1221 337.447 88.3711 337.289 88.6816C337.131 88.9863 337.017 89.3379 336.946 89.7363C336.946 89.7598 336.891 89.7715 336.779 89.7715C336.568 89.7715 336.287 89.7393 335.936 89.6748C335.584 89.6104 335.408 89.5547 335.408 89.5078C335.432 89.2852 335.461 89.0625 335.496 88.8398C335.531 88.6172 335.561 88.4297 335.584 88.2773C335.613 88.1191 335.651 87.9375 335.698 87.7324C335.751 87.5273 335.789 87.3809 335.812 87.293C335.836 87.1992 335.874 87.0527 335.927 86.8535C335.979 86.6484 336.012 86.5225 336.023 86.4756L336.059 86.3701C337.488 86.0361 338.856 85.8691 340.163 85.8691C340.784 85.8691 341.347 85.9307 341.851 86.0537C342.36 86.1709 342.779 86.3291 343.107 86.5283C343.441 86.7275 343.72 86.9648 343.942 87.2402C344.171 87.5098 344.332 87.791 344.426 88.084C344.525 88.377 344.575 88.6787 344.575 88.9893C344.575 89.6045 344.35 90.1699 343.898 90.6855C343.447 91.2012 342.861 91.541 342.141 91.7051C343.178 91.8457 344.016 92.2412 344.654 92.8916C345.299 93.542 345.621 94.3037 345.621 95.1768C345.621 96.0615 345.398 96.8145 344.953 97.4355C344.514 98.0566 343.925 98.5137 343.187 98.8066C342.454 99.0938 341.61 99.2373 340.655 99.2373C339.272 99.2373 337.816 99.0703 336.287 98.7363L336.252 98.6309C336.24 98.584 336.208 98.4609 336.155 98.2617C336.103 98.0566 336.064 97.9102 336.041 97.8223C336.018 97.7285 335.979 97.5791 335.927 97.374C335.88 97.1689 335.842 96.9902 335.812 96.8379C335.789 96.6797 335.76 96.4893 335.725 96.2666C335.689 96.0439 335.66 95.8213 335.637 95.5986C335.637 95.5518 335.812 95.4961 336.164 95.4316C336.516 95.3672 336.797 95.335 337.008 95.335C337.119 95.335 337.175 95.3467 337.175 95.3701C337.292 95.8975 337.518 96.3428 337.852 96.7061C338.186 97.0693 338.566 97.3301 338.994 97.4883C339.422 97.6465 339.885 97.7256 340.383 97.7256ZM354.094 89.5781C353.883 87.8555 353.127 86.9941 351.826 86.9941C351.439 86.9941 351.056 87.1084 350.675 87.3369C350.294 87.5654 349.948 87.8848 349.638 88.2949C349.327 88.7051 349.075 89.2295 348.882 89.8682C348.694 90.5068 348.601 91.2012 348.601 91.9512C349.661 91.418 350.763 91.1514 351.905 91.1514C352.597 91.1514 353.221 91.2656 353.777 91.4941C354.34 91.7227 354.794 92.0303 355.14 92.417C355.491 92.7979 355.761 93.2285 355.948 93.709C356.136 94.1895 356.229 94.6904 356.229 95.2119C356.229 95.7217 356.124 96.2139 355.913 96.6885C355.702 97.1572 355.397 97.585 354.999 97.9717C354.606 98.3525 354.085 98.6602 353.435 98.8945C352.784 99.123 352.058 99.2373 351.255 99.2373C349.685 99.2373 348.486 98.6895 347.66 97.5938C346.84 96.4922 346.43 94.9834 346.43 93.0674C346.43 91.8193 346.57 90.7207 346.852 89.7715C347.133 88.8223 347.531 88.0547 348.047 87.4688C348.568 86.8828 349.175 86.4434 349.866 86.1504C350.558 85.8574 351.334 85.7109 352.195 85.7109C353.127 85.7109 354.056 85.8779 354.981 86.2119L355.017 86.3174C355.028 86.3643 355.061 86.4902 355.113 86.6953C355.166 86.8945 355.204 87.041 355.228 87.1348C355.251 87.2227 355.286 87.3691 355.333 87.5742C355.386 87.7793 355.424 87.9609 355.447 88.1191C355.477 88.2715 355.509 88.459 355.544 88.6816C355.579 88.9043 355.608 89.127 355.632 89.3496C355.632 89.3965 355.456 89.4521 355.104 89.5166C354.753 89.5811 354.472 89.6133 354.261 89.6133C354.149 89.6133 354.094 89.6016 354.094 89.5781ZM354.261 95.4053C354.261 94.9072 354.185 94.4707 354.032 94.0957C353.886 93.7148 353.684 93.4189 353.426 93.208C353.174 92.9912 352.896 92.8301 352.591 92.7246C352.292 92.6191 351.97 92.5664 351.624 92.5664C350.915 92.5664 350.3 92.6484 349.778 92.8125C349.263 92.9766 348.87 93.1904 348.601 93.4541C348.601 94.292 348.68 95.0156 348.838 95.625C348.996 96.2344 349.21 96.7031 349.479 97.0312C349.755 97.3594 350.045 97.5967 350.35 97.7432C350.66 97.8896 350.997 97.9629 351.36 97.9629C351.794 97.9629 352.181 97.9102 352.521 97.8047C352.866 97.6934 353.145 97.5527 353.355 97.3828C353.566 97.207 353.742 97.0049 353.883 96.7764C354.023 96.542 354.12 96.3135 354.173 96.0908C354.231 95.8682 354.261 95.6396 354.261 95.4053ZM364.711 89.5781C364.5 87.8555 363.744 86.9941 362.443 86.9941C362.057 86.9941 361.673 87.1084 361.292 87.3369C360.911 87.5654 360.565 87.8848 360.255 88.2949C359.944 88.7051 359.692 89.2295 359.499 89.8682C359.312 90.5068 359.218 91.2012 359.218 91.9512C360.278 91.418 361.38 91.1514 362.522 91.1514C363.214 91.1514 363.838 91.2656 364.395 91.4941C364.957 91.7227 365.411 92.0303 365.757 92.417C366.108 92.7979 366.378 93.2285 366.565 93.709C366.753 94.1895 366.847 94.6904 366.847 95.2119C366.847 95.7217 366.741 96.2139 366.53 96.6885C366.319 97.1572 366.015 97.585 365.616 97.9717C365.224 98.3525 364.702 98.6602 364.052 98.8945C363.401 99.123 362.675 99.2373 361.872 99.2373C360.302 99.2373 359.104 98.6895 358.277 97.5938C357.457 96.4922 357.047 94.9834 357.047 93.0674C357.047 91.8193 357.188 90.7207 357.469 89.7715C357.75 88.8223 358.148 88.0547 358.664 87.4688C359.186 86.8828 359.792 86.4434 360.483 86.1504C361.175 85.8574 361.951 85.7109 362.812 85.7109C363.744 85.7109 364.673 85.8779 365.599 86.2119L365.634 86.3174C365.646 86.3643 365.678 86.4902 365.73 86.6953C365.783 86.8945 365.821 87.041 365.845 87.1348C365.868 87.2227 365.903 87.3691 365.95 87.5742C366.003 87.7793 366.041 87.9609 366.064 88.1191C366.094 88.2715 366.126 88.459 366.161 88.6816C366.196 88.9043 366.226 89.127 366.249 89.3496C366.249 89.3965 366.073 89.4521 365.722 89.5166C365.37 89.5811 365.089 89.6133 364.878 89.6133C364.767 89.6133 364.711 89.6016 364.711 89.5781ZM364.878 95.4053C364.878 94.9072 364.802 94.4707 364.649 94.0957C364.503 93.7148 364.301 93.4189 364.043 93.208C363.791 92.9912 363.513 92.8301 363.208 92.7246C362.909 92.6191 362.587 92.5664 362.241 92.5664C361.532 92.5664 360.917 92.6484 360.396 92.8125C359.88 92.9766 359.487 93.1904 359.218 93.4541C359.218 94.292 359.297 95.0156 359.455 95.625C359.613 96.2344 359.827 96.7031 360.097 97.0312C360.372 97.3594 360.662 97.5967 360.967 97.7432C361.277 97.8896 361.614 97.9629 361.978 97.9629C362.411 97.9629 362.798 97.9102 363.138 97.8047C363.483 97.6934 363.762 97.5527 363.973 97.3828C364.184 97.207 364.359 97.0049 364.5 96.7764C364.641 96.542 364.737 96.3135 364.79 96.0908C364.849 95.8682 364.878 95.6396 364.878 95.4053ZM369.58 95.1943C369.721 95.6748 369.879 96.085 370.055 96.4248C370.236 96.7646 370.412 97.0283 370.582 97.2158C370.758 97.3975 370.957 97.541 371.18 97.6465C371.402 97.7461 371.599 97.8105 371.769 97.8398C371.944 97.8633 372.152 97.875 372.393 97.875C373.16 97.875 373.822 97.4678 374.379 96.6533C374.936 95.8389 375.214 94.7812 375.214 93.4805V93.085C374.159 93.501 373.058 93.709 371.909 93.709C371.194 93.709 370.55 93.6006 369.976 93.3838C369.401 93.1611 368.936 92.8652 368.578 92.4961C368.221 92.127 367.948 91.7139 367.761 91.2568C367.573 90.7939 367.479 90.3135 367.479 89.8154C367.479 89.2939 367.579 88.793 367.778 88.3125C367.983 87.8262 368.273 87.3896 368.648 87.0029C369.023 86.6104 369.513 86.2969 370.116 86.0625C370.726 85.8281 371.402 85.7109 372.146 85.7109C373.312 85.7109 374.291 85.9951 375.082 86.5635C375.879 87.126 376.462 87.9082 376.831 88.9102C377.2 89.9062 377.385 91.1016 377.385 92.4961C377.385 93.6504 377.25 94.6641 376.98 95.5371C376.717 96.4043 376.336 97.1074 375.838 97.6465C375.346 98.1797 374.763 98.5781 374.089 98.8418C373.421 99.1055 372.665 99.2373 371.821 99.2373C370.919 99.2373 369.923 99.0703 368.833 98.7363L368.719 98.4023C368.355 97.3711 368.118 96.4072 368.007 95.5107C368.007 95.4521 368.186 95.3789 368.543 95.291C368.906 95.2031 369.196 95.1592 369.413 95.1592C369.519 95.1592 369.574 95.1709 369.58 95.1943ZM371.988 87.0381C371.596 87.0381 371.241 87.1113 370.925 87.2578C370.608 87.4043 370.354 87.6035 370.16 87.8555C369.967 88.1016 369.817 88.377 369.712 88.6816C369.612 88.9863 369.562 89.3086 369.562 89.6484C369.562 90.3574 369.794 90.9756 370.257 91.5029C370.726 92.0303 371.37 92.2939 372.19 92.2939C372.899 92.2939 373.512 92.2295 374.027 92.1006C374.543 91.9658 374.938 91.793 375.214 91.582C375.214 90.9023 375.149 90.2959 375.021 89.7627C374.897 89.2295 374.733 88.7959 374.528 88.4619C374.323 88.1279 374.077 87.8525 373.79 87.6357C373.503 87.4131 373.213 87.2578 372.92 87.1699C372.627 87.082 372.316 87.0381 371.988 87.0381Z" fill="#C08A00"/>
<path d="M0.5 0.690831L151.844 50.475L151.92 50.5H152H326H500H500.081L500.158 50.4743L649.5 0.693722V12.6717L499.896 77.5H326H152.102L0.5 12.67V0.690831Z" fill="#282400" stroke="#C08A00"/>
<path d="M208.916 68.6055C208.417 69.1318 207.785 69.542 207.019 69.8359C206.26 70.1299 205.488 70.2769 204.702 70.2769C203.724 70.2769 202.917 70.0171 202.282 69.4976C201.646 68.978 201.328 68.2261 201.328 67.2417C201.328 66.189 201.837 65.396 202.856 64.8628C203.622 64.4526 204.934 64.0972 206.793 63.7964C207.142 63.7349 207.709 63.646 208.496 63.5298C208.496 62.3677 208.349 61.5679 208.055 61.1304C207.761 60.6929 207.197 60.4741 206.363 60.4741C205.754 60.4741 205.078 60.6108 204.333 60.8843C203.587 61.1577 202.993 61.5371 202.548 62.0225C201.995 61.5576 201.718 61.103 201.718 60.6587C201.718 60.2759 201.981 59.9375 202.507 59.6436C203.034 59.3428 203.652 59.124 204.363 58.9873C205.081 58.8438 205.799 58.772 206.517 58.772C207.193 58.772 207.785 58.8574 208.291 59.0283C208.803 59.1924 209.254 59.4658 209.644 59.8486C210.034 60.2314 210.328 60.7578 210.526 61.4277C210.731 62.0977 210.833 62.9111 210.833 63.8682V67.1494C210.833 67.4297 210.854 67.6416 210.895 67.7852C210.943 67.9219 210.994 68.0073 211.049 68.0415C211.104 68.0688 211.192 68.0894 211.315 68.103C211.527 68.1235 211.685 68.144 211.787 68.1646C211.89 68.1782 212.009 68.2021 212.146 68.2363C212.283 68.2705 212.378 68.3149 212.433 68.3696C212.495 68.4243 212.525 68.4927 212.525 68.5747C212.525 69.3813 212.413 69.8838 212.187 70.082C211.859 70.0273 211.432 70 210.905 70C210.427 70 209.982 70.0239 209.572 70.0718C209.524 70.0376 209.463 69.9897 209.388 69.9282C209.319 69.8667 209.224 69.7095 209.101 69.4565C208.978 69.2036 208.916 68.9199 208.916 68.6055ZM205.173 68.4517C205.795 68.4517 206.469 68.2808 207.193 67.939C207.918 67.5903 208.355 67.2759 208.506 66.9956V65.1807C206.64 65.5156 205.378 65.8164 204.722 66.083C204.073 66.3496 203.748 66.7256 203.748 67.2109C203.748 68.0381 204.223 68.4517 205.173 68.4517ZM226.153 70.082C225.49 70.0273 224.892 70 224.358 70C224.01 70 223.63 70.0137 223.22 70.041C222.81 70.0684 222.54 70.082 222.41 70.082C222.178 70.082 222.062 69.8223 222.062 69.3027V63.1606C222.062 62.272 221.918 61.6226 221.631 61.2124C221.344 60.7954 220.968 60.5869 220.503 60.5869C220.024 60.5869 219.498 60.7236 218.924 60.9971C218.356 61.2637 217.823 61.6055 217.324 62.0225V67.4263C217.324 67.5288 217.328 67.6108 217.334 67.6724C217.348 67.7271 217.372 67.792 217.406 67.8672C217.447 67.9424 217.516 68.0005 217.611 68.0415C217.707 68.0757 217.83 68.0928 217.98 68.0928C218.24 68.0928 218.462 68.1338 218.647 68.2158C218.832 68.2979 218.924 68.4209 218.924 68.585C218.924 69.3848 218.811 69.8838 218.585 70.082C218.168 70.0273 217.386 70 216.237 70C215.089 70 214.258 70.0273 213.746 70.082C213.52 69.877 213.407 69.3779 213.407 68.585C213.407 68.4209 213.5 68.2979 213.684 68.2158C213.869 68.1338 214.091 68.0928 214.351 68.0928C214.617 68.0928 214.792 68.0381 214.874 67.9287C214.956 67.8125 214.997 67.6519 214.997 67.4468V61.9404C214.997 61.5781 214.891 61.3218 214.679 61.1714C214.474 61.021 214.074 60.9321 213.479 60.9048C213.39 60.8843 213.332 60.8398 213.305 60.7715C213.284 60.7031 213.274 60.5562 213.274 60.3306C213.274 59.9819 213.312 59.6743 213.387 59.4077C213.462 59.1411 213.537 58.9873 213.612 58.9463C214.063 59.0215 214.504 59.0591 214.935 59.0591C215.243 59.0591 215.567 59.042 215.909 59.0078C216.251 58.9668 216.432 58.9463 216.453 58.9463C216.692 58.9463 216.846 59.0078 216.914 59.1309C216.989 59.2471 217.027 59.5205 217.027 59.9512C217.027 59.999 217.023 60.0879 217.017 60.2178C217.017 60.3408 217.017 60.4399 217.017 60.5151C217.604 59.9956 218.271 59.5752 219.016 59.2539C219.761 58.9326 220.479 58.772 221.169 58.772C222.126 58.772 222.902 59.1104 223.497 59.7871C224.092 60.4639 224.389 61.5269 224.389 62.9761V67.3853C224.389 67.8296 224.56 68.0654 224.902 68.0928C224.97 68.0996 225.059 68.1064 225.168 68.1133C225.285 68.1201 225.374 68.127 225.435 68.1338C225.503 68.1406 225.585 68.1509 225.681 68.1646C225.777 68.1714 225.852 68.1816 225.907 68.1953C225.961 68.2021 226.023 68.2158 226.091 68.2363C226.167 68.25 226.225 68.2671 226.266 68.2876C226.307 68.3081 226.344 68.332 226.378 68.3594C226.419 68.3867 226.447 68.4209 226.46 68.4619C226.481 68.4961 226.491 68.5371 226.491 68.585C226.491 69.3779 226.378 69.877 226.153 70.082ZM234.325 67.9492C234.53 68.3389 234.633 68.7046 234.633 69.0464C234.633 69.2378 234.547 69.4053 234.376 69.5488C234.212 69.6855 233.997 69.7915 233.73 69.8667C233.464 69.9419 233.197 69.9966 232.931 70.0308C232.664 70.0649 232.404 70.082 232.151 70.082C231.769 70.082 231.413 70.0273 231.085 69.918C230.757 69.8086 230.442 69.6309 230.142 69.3848C229.848 69.1318 229.615 68.7695 229.444 68.2979C229.273 67.8193 229.188 67.252 229.188 66.5957V60.6484H228.747C227.94 60.6484 227.5 60.6519 227.424 60.6587C227.199 60.5767 227.086 60.3135 227.086 59.8691C227.086 59.3291 227.257 59.0591 227.599 59.0591H229.188C229.215 58.8403 229.239 58.5566 229.26 58.208C229.287 57.8525 229.311 57.5723 229.332 57.3672C229.352 57.1621 229.383 56.9194 229.424 56.6392C229.472 56.3589 229.533 56.1401 229.608 55.9829C229.69 55.8188 229.793 55.6582 229.916 55.501C230.039 55.3438 230.196 55.231 230.388 55.1626C230.586 55.0874 230.818 55.0498 231.085 55.0498C231.27 55.0498 231.413 55.0806 231.516 55.1421V59.0591H232.879C233.693 59.0591 234.12 59.042 234.161 59.0078C234.503 59.0078 234.674 59.3018 234.674 59.8896C234.674 60.334 234.561 60.5972 234.335 60.6792C234.11 60.6587 233.669 60.6484 233.013 60.6484H231.516V66.5342C231.516 67.6689 231.885 68.2363 232.623 68.2363C233.102 68.2363 233.669 68.1406 234.325 67.9492ZM237.873 57.2339C237.709 57.2339 237.542 57.2202 237.371 57.1929C237.2 57.1587 237.012 57.1006 236.807 57.0186C236.608 56.9365 236.444 56.8066 236.314 56.6289C236.191 56.4512 236.13 56.2393 236.13 55.9932C236.13 55.1523 236.697 54.7319 237.832 54.7319C238.153 54.7319 238.423 54.7729 238.642 54.855C238.868 54.937 239.032 55.0464 239.134 55.1831C239.244 55.3198 239.319 55.4531 239.36 55.583C239.401 55.7129 239.421 55.853 239.421 56.0034C239.421 56.311 239.326 56.564 239.134 56.7622C238.943 56.9604 238.738 57.0903 238.519 57.1519C238.307 57.2065 238.092 57.2339 237.873 57.2339ZM239.565 59.9512V67.4263C239.565 67.5288 239.568 67.6108 239.575 67.6724C239.589 67.7271 239.613 67.792 239.647 67.8672C239.688 67.9424 239.756 68.0005 239.852 68.0415C239.948 68.0757 240.071 68.0928 240.221 68.0928C240.481 68.0928 240.703 68.1338 240.888 68.2158C241.072 68.2979 241.165 68.4209 241.165 68.585C241.165 69.3848 241.052 69.8838 240.826 70.082C240.211 70.0273 239.459 70 238.57 70C237.647 70 236.786 70.0273 235.986 70.082C235.761 69.877 235.648 69.3779 235.648 68.585C235.648 68.4209 235.74 68.2979 235.925 68.2158C236.109 68.1338 236.332 68.0928 236.591 68.0928C236.858 68.0928 237.032 68.0381 237.114 67.9287C237.196 67.8125 237.237 67.6519 237.237 67.4468V61.9404C237.237 61.5781 237.131 61.3218 236.919 61.1714C236.714 61.021 236.314 60.9321 235.72 60.9048C235.631 60.8843 235.573 60.8398 235.545 60.7715C235.525 60.7031 235.515 60.5562 235.515 60.3306C235.515 59.9819 235.552 59.6743 235.627 59.4077C235.703 59.1411 235.778 58.9873 235.853 58.9463C236.379 59.0215 236.889 59.0591 237.381 59.0591C237.709 59.0591 238.054 59.042 238.417 59.0078C238.779 58.9668 238.97 58.9463 238.991 58.9463C239.23 58.9463 239.384 59.0078 239.452 59.1309C239.527 59.2471 239.565 59.5205 239.565 59.9512ZM250.639 65.2319V62.4531C250.42 61.9062 250.003 61.4482 249.388 61.0791C248.78 60.7031 248.086 60.5151 247.307 60.5151C246.479 60.5151 245.765 60.8706 245.164 61.5815C244.562 62.2856 244.261 63.2666 244.261 64.5244C244.261 65.7822 244.583 66.7632 245.225 67.4673C245.868 68.1714 246.63 68.5234 247.512 68.5234C247.895 68.5234 248.267 68.4551 248.629 68.3184C248.999 68.1748 249.333 67.9697 249.634 67.7031C249.935 67.4365 250.178 67.0913 250.362 66.6675C250.547 66.2368 250.639 65.7583 250.639 65.2319ZM250.639 71.6099V68.5542C250.304 69.1011 249.826 69.5249 249.204 69.8257C248.582 70.1265 247.946 70.2769 247.296 70.2769C246.606 70.2769 245.939 70.1538 245.297 69.9077C244.654 69.6616 244.073 69.3062 243.554 68.8413C243.041 68.3765 242.627 67.7715 242.313 67.0264C242.005 66.2812 241.852 65.4473 241.852 64.5244C241.852 63.6016 242.005 62.7676 242.313 62.0225C242.621 61.2773 243.031 60.6758 243.543 60.2178C244.063 59.7529 244.641 59.3975 245.276 59.1514C245.912 58.9053 246.575 58.7788 247.266 58.772H247.327C248.845 58.7856 250.198 59.3564 251.388 60.4844L252.516 59.5103C252.851 59.1821 253.206 59.0181 253.582 59.0181C253.855 59.0181 254.081 59.1069 254.259 59.2847C254.437 59.4624 254.525 59.6846 254.525 59.9512C254.525 60.334 254.334 60.7168 253.951 61.0996L252.967 61.9507V71.5894C252.967 71.6919 252.97 71.7705 252.977 71.8252C252.991 71.8867 253.015 71.9551 253.049 72.0303C253.09 72.1055 253.158 72.1602 253.254 72.1943C253.35 72.2354 253.473 72.2559 253.623 72.2559C253.883 72.2559 254.105 72.2969 254.29 72.3789C254.474 72.4609 254.566 72.584 254.566 72.748C254.566 73.5479 254.454 74.0469 254.228 74.2451C253.77 74.1426 252.998 74.0913 251.911 74.0913C250.742 74.0913 249.901 74.1426 249.388 74.2451C249.163 74.04 249.05 73.541 249.05 72.748C249.05 72.584 249.142 72.4609 249.327 72.3789C249.511 72.2969 249.733 72.2559 249.993 72.2559C250.26 72.2559 250.434 72.1978 250.516 72.0815C250.598 71.9722 250.639 71.8149 250.639 71.6099ZM266.379 59.6846V67.2007C266.379 67.3784 266.382 67.5049 266.389 67.5801C266.396 67.6553 266.413 67.7407 266.44 67.8364C266.475 67.9253 266.526 67.9868 266.594 68.021C266.669 68.0483 266.769 68.0757 266.892 68.103C267.015 68.1235 267.179 68.1338 267.384 68.1338C267.691 68.1338 267.886 68.1714 267.968 68.2466C268.057 68.3218 268.102 68.4756 268.102 68.708C268.102 69.0498 268.061 69.354 267.979 69.6206C267.903 69.8804 267.832 70.0342 267.763 70.082C267.264 70.0273 266.803 70 266.379 70C266.099 70 265.805 70.0137 265.497 70.041C265.196 70.0684 265.012 70.082 264.943 70.082C264.67 70.082 264.502 70 264.441 69.8359C264.386 69.6719 264.359 69.2344 264.359 68.5234C263.88 69.0771 263.303 69.5078 262.626 69.8154C261.956 70.123 261.272 70.2769 260.575 70.2769C260.069 70.2769 259.594 70.1914 259.15 70.0205C258.712 69.8564 258.316 69.6104 257.96 69.2822C257.605 68.9541 257.325 68.5132 257.12 67.9595C256.915 67.4058 256.812 66.7734 256.812 66.0625V61.9507C256.812 61.3013 256.641 60.9629 256.299 60.9355C256.245 60.9287 256.166 60.9219 256.063 60.915C255.968 60.9082 255.889 60.9014 255.828 60.8945C255.773 60.8877 255.705 60.8809 255.623 60.874C255.541 60.8604 255.476 60.8501 255.428 60.8433C255.38 60.8296 255.322 60.8159 255.253 60.8022C255.192 60.7817 255.144 60.7612 255.11 60.7407C255.076 60.7202 255.042 60.6963 255.007 60.6689C254.973 60.6416 254.949 60.6108 254.936 60.5767C254.922 60.5356 254.915 60.4912 254.915 60.4434C254.915 59.6504 255.028 59.1514 255.253 58.9463C255.896 59.0215 256.487 59.0591 257.027 59.0591C257.403 59.0591 257.786 59.042 258.176 59.0078C258.572 58.9668 258.777 58.9463 258.791 58.9463C259.023 58.9463 259.14 59.1924 259.14 59.6846V66.1855C259.14 66.9375 259.334 67.5015 259.724 67.8774C260.114 68.2534 260.613 68.4414 261.221 68.4414C261.741 68.4414 262.257 68.3047 262.77 68.0312C263.289 67.7578 263.716 67.3853 264.051 66.9136V61.9507C264.051 61.3013 263.88 60.9629 263.539 60.9355C263.484 60.9287 263.405 60.9219 263.303 60.915C263.207 60.9082 263.128 60.9014 263.067 60.8945C263.012 60.8877 262.944 60.8809 262.862 60.874C262.78 60.8604 262.715 60.8501 262.667 60.8433C262.619 60.8296 262.561 60.8159 262.493 60.8022C262.431 60.7817 262.383 60.7612 262.349 60.7407C262.315 60.7202 262.281 60.6963 262.247 60.6689C262.212 60.6416 262.188 60.6108 262.175 60.5767C262.161 60.5356 262.154 60.4912 262.154 60.4434C262.154 59.6436 262.267 59.1445 262.493 58.9463C263.135 59.0215 263.727 59.0591 264.267 59.0591C264.718 59.0591 265.176 59.042 265.641 59.0078C266.112 58.9668 266.355 58.9463 266.369 58.9463C266.375 58.9463 266.379 59.1924 266.379 59.6846ZM279.412 63.9399C279.412 64.2544 279.33 64.4971 279.166 64.668C279.008 64.832 278.708 64.9141 278.263 64.9141H271.188C271.215 65.5361 271.325 66.0728 271.516 66.5239C271.708 66.9751 271.96 67.3306 272.275 67.5903C272.589 67.8433 272.935 68.0312 273.311 68.1543C273.687 68.2705 274.097 68.3286 274.541 68.3286C275.163 68.3286 275.799 68.2192 276.448 68.0005C277.098 67.7817 277.686 67.4741 278.212 67.0776C278.602 67.5356 278.796 67.9868 278.796 68.4312C278.796 68.7251 278.602 69.0156 278.212 69.3027C277.822 69.583 277.296 69.8154 276.633 70C275.97 70.1846 275.279 70.2769 274.562 70.2769C273.974 70.2769 273.413 70.2188 272.88 70.1025C272.354 69.9863 271.834 69.7847 271.321 69.4976C270.815 69.2036 270.378 68.8345 270.009 68.3901C269.64 67.9458 269.342 67.375 269.117 66.6777C268.891 65.9805 268.778 65.1909 268.778 64.3091C268.778 63.4478 268.942 62.6582 269.271 61.9404C269.599 61.2227 270.033 60.6382 270.573 60.187C271.113 59.729 271.714 59.377 272.377 59.1309C273.047 58.8848 273.734 58.7617 274.438 58.7617C274.958 58.7617 275.457 58.8267 275.936 58.9565C276.414 59.0864 276.865 59.2915 277.289 59.5718C277.713 59.8452 278.082 60.1836 278.396 60.5869C278.711 60.9834 278.957 61.4688 279.135 62.043C279.319 62.6172 279.412 63.2495 279.412 63.9399ZM277.34 63.3247C277.279 62.3745 276.978 61.6533 276.438 61.1611C275.905 60.6621 275.266 60.4126 274.521 60.4126C273.728 60.4126 273.006 60.6792 272.357 61.2124C271.714 61.7388 271.345 62.4429 271.25 63.3247H277.34ZM284.128 63.8066V66.4829C284.347 67.0571 284.764 67.5425 285.379 67.939C285.995 68.3286 286.692 68.5234 287.471 68.5234C288.298 68.5234 289.013 68.1714 289.614 67.4673C290.216 66.7563 290.517 65.772 290.517 64.5142C290.517 63.2563 290.195 62.2754 289.553 61.5713C288.91 60.8672 288.148 60.5151 287.266 60.5151C286.883 60.5151 286.507 60.5869 286.138 60.7305C285.769 60.8672 285.434 61.0688 285.133 61.3354C284.833 61.6021 284.59 61.9507 284.405 62.3813C284.221 62.8052 284.128 63.2803 284.128 63.8066ZM284.128 56.1777V60.4844C284.463 59.9375 284.942 59.5171 285.564 59.2231C286.193 58.9224 286.832 58.772 287.481 58.772C288.172 58.772 288.838 58.895 289.481 59.1411C290.124 59.3872 290.701 59.7427 291.214 60.2075C291.733 60.6655 292.147 61.2671 292.455 62.0122C292.769 62.7573 292.926 63.5913 292.926 64.5142C292.926 65.437 292.772 66.2744 292.465 67.0264C292.157 67.7715 291.744 68.3765 291.224 68.8413C290.711 69.3062 290.137 69.6616 289.501 69.9077C288.866 70.1538 288.203 70.2769 287.512 70.2769C285.974 70.2769 284.6 69.7026 283.39 68.5542L282.365 69.5796C281.996 69.9077 281.64 70.0718 281.298 70.0718C281.025 70.0718 280.799 69.9829 280.622 69.8052C280.444 69.6274 280.355 69.4053 280.355 69.1387C280.355 68.7285 280.546 68.3457 280.929 67.9902L281.801 67.1904V57.603C281.801 57.2407 281.695 56.9844 281.483 56.834C281.278 56.6836 280.878 56.5947 280.283 56.5674C280.194 56.5469 280.136 56.5024 280.109 56.4341C280.088 56.3657 280.078 56.2188 280.078 55.9932C280.078 55.6445 280.116 55.3369 280.191 55.0703C280.266 54.8037 280.341 54.6499 280.417 54.6089C280.984 54.6841 281.527 54.7217 282.047 54.7217C282.354 54.7217 282.679 54.7046 283.021 54.6704C283.363 54.6294 283.544 54.6089 283.564 54.6089C283.804 54.6089 283.958 54.6704 284.026 54.7935C284.101 54.9097 284.139 55.1831 284.139 55.6138C284.139 55.6616 284.135 55.7505 284.128 55.8804C284.128 56.0034 284.128 56.1025 284.128 56.1777ZM301.222 68.6055C300.723 69.1318 300.09 69.542 299.325 69.8359C298.566 70.1299 297.793 70.2769 297.007 70.2769C296.03 70.2769 295.223 70.0171 294.587 69.4976C293.952 68.978 293.634 68.2261 293.634 67.2417C293.634 66.189 294.143 65.396 295.162 64.8628C295.927 64.4526 297.24 64.0972 299.099 63.7964C299.448 63.7349 300.015 63.646 300.801 63.5298C300.801 62.3677 300.654 61.5679 300.36 61.1304C300.066 60.6929 299.502 60.4741 298.668 60.4741C298.06 60.4741 297.383 60.6108 296.638 60.8843C295.893 61.1577 295.298 61.5371 294.854 62.0225C294.3 61.5576 294.023 61.103 294.023 60.6587C294.023 60.2759 294.287 59.9375 294.813 59.6436C295.339 59.3428 295.958 59.124 296.669 58.9873C297.387 58.8438 298.104 58.772 298.822 58.772C299.499 58.772 300.09 58.8574 300.596 59.0283C301.109 59.1924 301.56 59.4658 301.95 59.8486C302.339 60.2314 302.633 60.7578 302.832 61.4277C303.037 62.0977 303.139 62.9111 303.139 63.8682V67.1494C303.139 67.4297 303.16 67.6416 303.201 67.7852C303.249 67.9219 303.3 68.0073 303.354 68.0415C303.409 68.0688 303.498 68.0894 303.621 68.103C303.833 68.1235 303.99 68.144 304.093 68.1646C304.195 68.1782 304.315 68.2021 304.452 68.2363C304.588 68.2705 304.684 68.3149 304.739 68.3696C304.8 68.4243 304.831 68.4927 304.831 68.5747C304.831 69.3813 304.718 69.8838 304.493 70.082C304.165 70.0273 303.737 70 303.211 70C302.732 70 302.288 70.0239 301.878 70.0718C301.83 70.0376 301.769 69.9897 301.693 69.9282C301.625 69.8667 301.529 69.7095 301.406 69.4565C301.283 69.2036 301.222 68.9199 301.222 68.6055ZM297.479 68.4517C298.101 68.4517 298.774 68.2808 299.499 67.939C300.224 67.5903 300.661 67.2759 300.812 66.9956V65.1807C298.945 65.5156 297.684 65.8164 297.028 66.083C296.378 66.3496 296.054 66.7256 296.054 67.2109C296.054 68.0381 296.529 68.4517 297.479 68.4517ZM309.312 59.9512V60.6177C309.62 60.1255 310.078 59.6948 310.686 59.3257C311.294 58.9565 311.875 58.772 312.429 58.772C312.792 58.772 313.137 58.8335 313.465 58.9565C313.793 59.0728 314.077 59.2847 314.316 59.5923C314.562 59.8999 314.685 60.2759 314.685 60.7202C314.685 61.937 314.039 62.5454 312.747 62.5454C312.72 62.5454 312.692 62.542 312.665 62.5352C312.638 62.5283 312.614 62.5181 312.593 62.5044C312.58 62.4907 312.566 62.4771 312.552 62.4634C312.539 62.4497 312.525 62.4292 312.511 62.4019C312.504 62.3745 312.498 62.3506 312.491 62.3301C312.484 62.3096 312.477 62.2788 312.47 62.2378C312.463 62.1899 312.457 62.1523 312.45 62.125C312.45 62.0977 312.446 62.0601 312.439 62.0122C312.439 61.9575 312.436 61.9131 312.429 61.8789L312.306 60.8125C312.122 60.7236 311.92 60.6792 311.701 60.6792C311.305 60.6792 310.905 60.8262 310.501 61.1201C310.105 61.4072 309.811 61.7422 309.62 62.125V67.3135C309.62 67.416 309.623 67.498 309.63 67.5596C309.644 67.6143 309.667 67.6792 309.702 67.7544C309.743 67.8296 309.811 67.8877 309.907 67.9287C310.002 67.9629 310.125 67.98 310.276 67.98C310.536 67.98 310.758 68.021 310.942 68.103C311.127 68.1851 311.219 68.3081 311.219 68.4722C311.219 68.8003 311.165 69.125 311.055 69.4463C310.946 69.7676 310.785 69.9795 310.573 70.082C310.095 70.0273 309.394 70 308.471 70C307.548 70 306.841 70.0273 306.349 70.082C306.123 69.9795 305.959 69.771 305.856 69.4565C305.754 69.1353 305.703 68.8071 305.703 68.4722C305.703 68.3081 305.795 68.1851 305.979 68.103C306.164 68.021 306.386 67.98 306.646 67.98C306.913 67.98 307.087 67.9253 307.169 67.8159C307.251 67.6997 307.292 67.5391 307.292 67.334V61.9404C307.292 61.5781 307.186 61.3218 306.974 61.1714C306.769 61.021 306.369 60.9321 305.774 60.9048C305.686 60.8843 305.627 60.8398 305.6 60.7715C305.58 60.7031 305.569 60.5562 305.569 60.3306C305.569 59.9819 305.607 59.6743 305.682 59.4077C305.757 59.1411 305.833 58.9873 305.908 58.9463C306.393 59.0215 306.868 59.0591 307.333 59.0591C307.62 59.0591 307.921 59.042 308.235 59.0078C308.557 58.9668 308.728 58.9463 308.748 58.9463C308.987 58.9463 309.141 59.0078 309.209 59.1309C309.278 59.2471 309.312 59.5205 309.312 59.9512ZM324.806 67.2827C324.806 67.9731 324.594 68.5474 324.17 69.0054C323.753 69.4565 323.199 69.7812 322.509 69.9795C321.818 70.1777 321.001 70.2769 320.058 70.2769C318.609 70.2769 317.474 70.0684 316.654 69.6514C315.84 69.2344 315.434 68.5952 315.434 67.7339C315.434 66.7563 316.032 66.2676 317.228 66.2676C317.419 66.2676 317.546 66.3052 317.607 66.3804C317.669 66.4556 317.7 66.5991 317.7 66.811V68.2056C317.953 68.3423 318.325 68.4482 318.817 68.5234C319.316 68.5986 319.819 68.6362 320.325 68.6362C320.926 68.6362 321.422 68.5132 321.812 68.2671C322.208 68.0142 322.406 67.6689 322.406 67.2314C322.406 66.9238 322.307 66.6504 322.109 66.4111C321.911 66.165 321.651 65.9668 321.33 65.8164C321.008 65.666 320.639 65.5156 320.222 65.3652C319.812 65.208 319.392 65.0645 318.961 64.9346C318.537 64.8047 318.117 64.6406 317.7 64.4424C317.29 64.2441 316.924 64.0288 316.603 63.7964C316.281 63.564 316.021 63.2598 315.823 62.8838C315.625 62.5078 315.526 62.084 315.526 61.6123C315.526 61.0039 315.751 60.4775 316.203 60.0332C316.654 59.5889 317.204 59.2676 317.854 59.0693C318.51 58.8711 319.21 58.772 319.956 58.772C323.018 58.772 324.549 59.6606 324.549 61.438C324.549 61.5474 324.529 61.6636 324.488 61.7866C324.454 61.9097 324.382 62.0532 324.272 62.2173C324.17 62.3813 323.992 62.5181 323.739 62.6274C323.493 62.73 323.189 62.7812 322.827 62.7812C322.758 62.7812 322.7 62.7744 322.652 62.7607C322.611 62.7471 322.577 62.7334 322.55 62.7197C322.529 62.6992 322.509 62.6685 322.488 62.6274C322.475 62.5796 322.464 62.5454 322.458 62.5249C322.458 62.5044 322.451 62.46 322.437 62.3916C322.43 62.3164 322.427 62.2651 322.427 62.2378L322.283 60.8022C322.188 60.7065 321.89 60.6006 321.391 60.4844C320.899 60.3682 320.475 60.3101 320.12 60.3101C319.422 60.3101 318.903 60.4399 318.561 60.6997C318.226 60.9595 318.059 61.2876 318.059 61.6841C318.059 61.9712 318.182 62.2241 318.428 62.4429C318.681 62.6616 319.005 62.8496 319.402 63.0068C319.798 63.1572 320.236 63.3076 320.714 63.458C321.193 63.6084 321.671 63.7896 322.15 64.0015C322.628 64.2065 323.066 64.4424 323.462 64.709C323.859 64.9756 324.18 65.3311 324.426 65.7754C324.679 66.2129 324.806 66.7153 324.806 67.2827ZM338.249 68.2466C337.825 68.2466 337.473 68.2021 337.192 68.1133C336.919 68.0176 336.707 67.9014 336.557 67.7646C336.413 67.6279 336.259 67.4297 336.095 67.1699C335.692 67.6416 335.186 68.0107 334.578 68.2773C333.976 68.5371 333.364 68.667 332.742 68.667C331.99 68.667 331.368 68.4688 330.876 68.0723C330.384 67.6689 330.138 67.0845 330.138 66.3188C330.138 65.4712 330.579 64.8354 331.46 64.4116C332.096 64.1108 333.228 63.834 334.854 63.5811C335.039 63.5537 335.343 63.5093 335.767 63.4478C335.767 62.5522 335.651 61.9336 335.418 61.5918C335.193 61.25 334.759 61.0791 334.116 61.0791C333.638 61.0791 333.101 61.1885 332.506 61.4072C331.912 61.6191 331.437 61.9097 331.081 62.2788C330.65 61.9165 330.435 61.5645 330.435 61.2227C330.435 60.9287 330.644 60.6689 331.061 60.4434C331.478 60.2109 331.97 60.04 332.537 59.9307C333.104 59.8213 333.672 59.7666 334.239 59.7666C335.319 59.7666 336.143 60.0674 336.71 60.6689C337.285 61.2637 337.572 62.2754 337.572 63.7041V66.042C337.572 66.2607 337.592 66.4248 337.633 66.5342C337.681 66.6367 337.732 66.7017 337.787 66.729C337.842 66.7495 337.931 66.7666 338.054 66.7803C338.478 66.7803 338.833 66.6914 339.12 66.5137C339.407 66.3359 339.623 66.0762 339.766 65.7344C339.917 65.3857 340.019 65.0098 340.074 64.6064C340.135 64.2031 340.166 63.7246 340.166 63.1709C340.166 62.3164 339.999 61.5439 339.664 60.8535C339.335 60.1562 338.895 59.5889 338.341 59.1514C337.787 58.7139 337.162 58.3789 336.464 58.1465C335.767 57.9072 335.039 57.7876 334.28 57.7876C332.872 57.7876 331.652 58.0747 330.62 58.6489C329.594 59.2231 328.822 60.0059 328.302 60.9971C327.79 61.9883 327.533 63.1299 327.533 64.4219C327.533 65.2285 327.66 65.9873 327.913 66.6982C328.166 67.4023 328.545 68.0449 329.051 68.626C329.563 69.207 330.254 69.6685 331.122 70.0103C331.99 70.3521 332.992 70.5229 334.126 70.5229C335.904 70.5229 337.596 70.1401 339.202 69.3745C339.421 69.5728 339.53 69.8667 339.53 70.2563C339.53 70.4478 339.387 70.6528 339.1 70.8716C338.819 71.0903 338.45 71.2886 337.992 71.4663C337.534 71.6509 336.977 71.8047 336.321 71.9277C335.665 72.0508 335.001 72.1123 334.332 72.1123C333.005 72.1123 331.795 71.9141 330.702 71.5176C329.608 71.1211 328.695 70.5776 327.964 69.8872C327.239 69.1899 326.675 68.373 326.272 67.4365C325.875 66.4932 325.677 65.478 325.677 64.3911C325.677 63.5708 325.79 62.771 326.016 61.9917C326.241 61.2124 326.59 60.4775 327.062 59.7871C327.54 59.0967 328.111 58.4917 328.774 57.9722C329.444 57.4458 330.247 57.0322 331.184 56.7314C332.127 56.4238 333.149 56.27 334.25 56.27C335.637 56.27 336.902 56.5469 338.043 57.1006C339.192 57.6543 340.108 58.4541 340.792 59.5C341.482 60.5459 341.827 61.7422 341.827 63.0889C341.827 63.8477 341.725 64.5552 341.52 65.2114C341.321 65.8608 341.055 66.4043 340.72 66.8418C340.385 67.2793 340.002 67.6245 339.571 67.8774C339.147 68.1235 338.707 68.2466 338.249 68.2466ZM333.111 67.252C333.61 67.252 334.15 67.1187 334.731 66.8521C335.312 66.5854 335.661 66.3428 335.777 66.124V64.7192C334.301 64.979 333.303 65.2148 332.783 65.4268C332.264 65.6318 332.004 65.9224 332.004 66.2983C332.004 66.9341 332.373 67.252 333.111 67.252ZM353.558 71.333C353.558 71.9414 353.455 72.4678 353.25 72.9121C353.045 73.3633 352.775 73.7222 352.44 73.9888C352.105 74.2622 351.678 74.481 351.158 74.645C350.646 74.8091 350.119 74.9185 349.579 74.9731C349.046 75.0347 348.431 75.0654 347.733 75.0654C346.448 75.0654 345.351 74.9185 344.442 74.6245C343.54 74.3374 343.088 73.9512 343.088 73.4658C343.088 72.4678 343.369 71.3398 343.929 70.082C343.143 69.8154 342.75 69.2617 342.75 68.4209C342.75 67.6143 343.249 66.8008 344.247 65.9805C343.741 65.6045 343.358 65.1567 343.099 64.6372C342.846 64.1177 342.719 63.5776 342.719 63.0171C342.719 62.4839 342.839 61.9644 343.078 61.4585C343.317 60.9458 343.646 60.4912 344.062 60.0947C344.479 59.6982 344.996 59.3804 345.611 59.1411C346.226 58.895 346.886 58.772 347.59 58.772C348.185 58.772 348.687 58.8232 349.097 58.9258C349.507 59.0283 349.904 59.1958 350.287 59.4282C350.293 59.4214 350.365 59.3428 350.502 59.1924C350.639 59.042 350.765 58.9155 350.881 58.813C351.004 58.7104 351.165 58.5908 351.363 58.4541C351.562 58.3174 351.787 58.2148 352.04 58.1465C352.3 58.0713 352.57 58.0337 352.85 58.0337C353.301 58.0337 353.585 58.085 353.701 58.1875C353.817 58.2832 353.875 58.478 353.875 58.772V58.9463C353.875 59.0967 353.872 59.2197 353.865 59.3154C353.865 59.4111 353.848 59.5034 353.814 59.5923C353.78 59.6743 353.749 59.7393 353.722 59.7871C353.694 59.835 353.636 59.8794 353.547 59.9204C353.458 59.9614 353.376 59.9922 353.301 60.0127C353.233 60.0264 353.11 60.04 352.932 60.0537C352.761 60.0674 352.604 60.0742 352.46 60.0742C352.324 60.0742 352.119 60.0742 351.845 60.0742C351.784 60.0742 351.681 60.0708 351.538 60.064C351.401 60.0571 351.295 60.0537 351.22 60.0537C351.685 60.3682 352.054 60.8022 352.327 61.356C352.601 61.9097 352.737 62.5112 352.737 63.1606C352.737 64.2476 352.3 65.1567 351.425 65.8882C350.557 66.6196 349.357 66.9854 347.826 66.9854C347.484 66.9854 347.152 66.9614 346.831 66.9136C346.51 66.8589 346.216 66.7974 345.949 66.729C345.683 66.6538 345.546 66.6162 345.539 66.6162C345.313 67.0674 345.201 67.5151 345.201 67.9595C345.201 68.1714 345.354 68.3218 345.662 68.4106C345.97 68.4995 346.37 68.5474 346.862 68.5542C347.354 68.561 347.894 68.5645 348.482 68.5645C349.077 68.5576 349.671 68.5884 350.266 68.6567C350.861 68.7251 351.404 68.8413 351.896 69.0054C352.389 69.1694 352.789 69.4497 353.096 69.8462C353.404 70.2358 353.558 70.7314 353.558 71.333ZM347.713 65.2422C348.246 65.2422 348.708 65.1807 349.097 65.0576C349.487 64.9277 349.788 64.7534 350 64.5347C350.211 64.3091 350.365 64.0698 350.461 63.8169C350.563 63.5571 350.615 63.2734 350.615 62.9658C350.615 62.2891 350.372 61.708 349.887 61.2227C349.408 60.7373 348.697 60.4946 347.754 60.4946C346.817 60.4946 346.113 60.7339 345.642 61.2124C345.17 61.6841 344.934 62.2651 344.934 62.9556C344.934 63.5981 345.156 64.1416 345.601 64.5859C346.052 65.0234 346.756 65.2422 347.713 65.2422ZM346.534 70.4409C345.795 70.3931 345.279 70.3315 344.985 70.2563C344.985 70.5503 344.985 70.769 344.985 70.9126C344.992 71.063 345.002 71.2578 345.016 71.4971C345.037 71.7432 345.064 71.9312 345.098 72.061C345.139 72.1909 345.194 72.3276 345.262 72.4712C345.331 72.6216 345.419 72.7344 345.529 72.8096C345.638 72.8848 345.768 72.936 345.918 72.9634C346.78 73.1206 347.562 73.1992 348.267 73.1992C348.841 73.1992 349.319 73.1582 349.702 73.0762C350.092 73.001 350.386 72.8882 350.584 72.7378C350.789 72.5874 350.929 72.4199 351.004 72.2354C351.086 72.0576 351.127 71.8423 351.127 71.5894C351.127 70.8237 350.263 70.4409 348.533 70.4409H346.534ZM358.551 59.9512V60.5151C359.043 60.0024 359.631 59.5854 360.315 59.2642C361.005 58.936 361.686 58.772 362.355 58.772C362.964 58.772 363.514 58.9224 364.006 59.2231C364.505 59.5239 364.905 59.9888 365.206 60.6177C365.814 60.0708 366.495 59.6299 367.247 59.2949C368.005 58.9531 368.73 58.7822 369.42 58.7822C370.35 58.7822 371.105 59.1206 371.687 59.7974C372.268 60.4741 372.558 61.5337 372.558 62.9761V67.375C372.558 67.8193 372.732 68.0552 373.081 68.0825C373.149 68.0894 373.242 68.0962 373.358 68.103C373.481 68.1099 373.577 68.1167 373.645 68.1235C373.713 68.1304 373.799 68.1406 373.901 68.1543C374.004 68.1611 374.086 68.1714 374.147 68.1851C374.209 68.1919 374.277 68.2056 374.353 68.2261C374.428 68.2397 374.486 68.2568 374.527 68.2773C374.575 68.2979 374.619 68.3218 374.66 68.3491C374.701 68.3765 374.729 68.4106 374.742 68.4517C374.763 68.4858 374.773 68.5269 374.773 68.5747C374.773 69.3745 374.66 69.877 374.435 70.082C373.635 70.0273 372.944 70 372.363 70C372.028 70 371.683 70.0137 371.328 70.041C370.972 70.0684 370.726 70.082 370.589 70.082C370.35 70.082 370.23 69.8188 370.23 69.2925V63.1606C370.23 62.272 370.087 61.6226 369.8 61.2124C369.513 60.7954 369.137 60.5869 368.672 60.5869C368.207 60.5869 367.694 60.7271 367.134 61.0073C366.573 61.2808 366.047 61.6362 365.555 62.0737C365.589 62.3813 365.606 62.6821 365.606 62.9761V67.375C365.606 67.8193 365.777 68.0552 366.119 68.0825C366.187 68.0894 366.276 68.0962 366.385 68.103C366.501 68.1099 366.59 68.1167 366.652 68.1235C366.72 68.1304 366.802 68.1406 366.898 68.1543C366.994 68.1611 367.069 68.1714 367.124 68.1851C367.178 68.1919 367.24 68.2056 367.308 68.2261C367.383 68.2397 367.441 68.2568 367.482 68.2773C367.523 68.2979 367.561 68.3218 367.595 68.3491C367.636 68.3765 367.664 68.4106 367.677 68.4517C367.698 68.4858 367.708 68.5269 367.708 68.5747C367.708 69.3745 367.595 69.877 367.37 70.082C366.713 70.0273 366.112 70 365.565 70C365.223 70 364.847 70.0137 364.437 70.041C364.027 70.0684 363.757 70.082 363.627 70.082C363.395 70.082 363.278 69.8188 363.278 69.2925V63.1606C363.278 62.272 363.135 61.6226 362.848 61.2124C362.561 60.7954 362.185 60.5869 361.72 60.5869C361.255 60.5869 360.746 60.7305 360.192 61.0176C359.638 61.3047 359.122 61.6738 358.644 62.125V67.4263C358.644 67.522 358.65 67.604 358.664 67.6724C358.678 67.7339 358.705 67.8022 358.746 67.8774C358.787 67.9458 358.855 68.0005 358.951 68.0415C359.054 68.0757 359.18 68.0928 359.331 68.0928C359.59 68.0928 359.812 68.1338 359.997 68.2158C360.182 68.2979 360.274 68.4209 360.274 68.585C360.274 69.3848 360.161 69.8838 359.936 70.082C359.266 70.0273 358.438 70 357.454 70C356.395 70 355.608 70.0273 355.096 70.082C354.87 69.877 354.757 69.3779 354.757 68.585C354.757 68.4209 354.85 68.2979 355.034 68.2158C355.219 68.1338 355.441 68.0928 355.701 68.0928C355.94 68.0928 356.101 68.0449 356.183 67.9492C356.271 67.8535 356.316 67.686 356.316 67.4468V61.9404C356.316 61.5781 356.21 61.3218 355.998 61.1714C355.793 61.021 355.393 60.9321 354.798 60.9048C354.709 60.8843 354.651 60.8398 354.624 60.7715C354.604 60.7031 354.593 60.5562 354.593 60.3306C354.593 59.9819 354.631 59.6743 354.706 59.4077C354.781 59.1411 354.856 58.9873 354.932 58.9463C355.458 59.0215 355.967 59.0591 356.459 59.0591C356.767 59.0591 357.092 59.042 357.434 59.0078C357.775 58.9668 357.957 58.9463 357.977 58.9463C358.216 58.9463 358.37 59.0078 358.438 59.1309C358.514 59.2471 358.551 59.5205 358.551 59.9512ZM382.945 68.6055C382.446 69.1318 381.814 69.542 381.048 69.8359C380.29 70.1299 379.517 70.2769 378.731 70.2769C377.753 70.2769 376.947 70.0171 376.311 69.4976C375.675 68.978 375.357 68.2261 375.357 67.2417C375.357 66.189 375.867 65.396 376.885 64.8628C377.651 64.4526 378.963 64.0972 380.823 63.7964C381.171 63.7349 381.739 63.646 382.525 63.5298C382.525 62.3677 382.378 61.5679 382.084 61.1304C381.79 60.6929 381.226 60.4741 380.392 60.4741C379.784 60.4741 379.107 60.6108 378.362 60.8843C377.617 61.1577 377.022 61.5371 376.578 62.0225C376.024 61.5576 375.747 61.103 375.747 60.6587C375.747 60.2759 376.01 59.9375 376.537 59.6436C377.063 59.3428 377.682 59.124 378.393 58.9873C379.11 58.8438 379.828 58.772 380.546 58.772C381.223 58.772 381.814 58.8574 382.32 59.0283C382.833 59.1924 383.284 59.4658 383.673 59.8486C384.063 60.2314 384.357 60.7578 384.555 61.4277C384.76 62.0977 384.863 62.9111 384.863 63.8682V67.1494C384.863 67.4297 384.883 67.6416 384.924 67.7852C384.972 67.9219 385.023 68.0073 385.078 68.0415C385.133 68.0688 385.222 68.0894 385.345 68.103C385.557 68.1235 385.714 68.144 385.816 68.1646C385.919 68.1782 386.039 68.2021 386.175 68.2363C386.312 68.2705 386.408 68.3149 386.462 68.3696C386.524 68.4243 386.555 68.4927 386.555 68.5747C386.555 69.3813 386.442 69.8838 386.216 70.082C385.888 70.0273 385.461 70 384.935 70C384.456 70 384.012 70.0239 383.602 70.0718C383.554 70.0376 383.492 69.9897 383.417 69.9282C383.349 69.8667 383.253 69.7095 383.13 69.4565C383.007 69.2036 382.945 68.9199 382.945 68.6055ZM379.203 68.4517C379.825 68.4517 380.498 68.2808 381.223 67.939C381.947 67.5903 382.385 67.2759 382.535 66.9956V65.1807C380.669 65.5156 379.408 65.8164 378.751 66.083C378.102 66.3496 377.777 66.7256 377.777 67.2109C377.777 68.0381 378.252 68.4517 379.203 68.4517ZM389.651 57.2339C389.487 57.2339 389.32 57.2202 389.149 57.1929C388.978 57.1587 388.79 57.1006 388.585 57.0186C388.387 56.9365 388.223 56.8066 388.093 56.6289C387.97 56.4512 387.908 56.2393 387.908 55.9932C387.908 55.1523 388.476 54.7319 389.61 54.7319C389.932 54.7319 390.202 54.7729 390.42 54.855C390.646 54.937 390.81 55.0464 390.913 55.1831C391.022 55.3198 391.097 55.4531 391.138 55.583C391.179 55.7129 391.2 55.853 391.2 56.0034C391.2 56.311 391.104 56.564 390.913 56.7622C390.721 56.9604 390.516 57.0903 390.297 57.1519C390.085 57.2065 389.87 57.2339 389.651 57.2339ZM391.343 59.9512V67.4263C391.343 67.5288 391.347 67.6108 391.354 67.6724C391.367 67.7271 391.391 67.792 391.425 67.8672C391.466 67.9424 391.535 68.0005 391.63 68.0415C391.726 68.0757 391.849 68.0928 392 68.0928C392.259 68.0928 392.481 68.1338 392.666 68.2158C392.851 68.2979 392.943 68.4209 392.943 68.585C392.943 69.3848 392.83 69.8838 392.604 70.082C391.989 70.0273 391.237 70 390.349 70C389.426 70 388.564 70.0273 387.765 70.082C387.539 69.877 387.426 69.3779 387.426 68.585C387.426 68.4209 387.519 68.2979 387.703 68.2158C387.888 68.1338 388.11 68.0928 388.37 68.0928C388.636 68.0928 388.811 68.0381 388.893 67.9287C388.975 67.8125 389.016 67.6519 389.016 67.4468V61.9404C389.016 61.5781 388.91 61.3218 388.698 61.1714C388.493 61.021 388.093 60.9321 387.498 60.9048C387.409 60.8843 387.351 60.8398 387.324 60.7715C387.303 60.7031 387.293 60.5562 387.293 60.3306C387.293 59.9819 387.331 59.6743 387.406 59.4077C387.481 59.1411 387.556 58.9873 387.631 58.9463C388.158 59.0215 388.667 59.0591 389.159 59.0591C389.487 59.0591 389.833 59.042 390.195 59.0078C390.557 58.9668 390.749 58.9463 390.769 58.9463C391.008 58.9463 391.162 59.0078 391.23 59.1309C391.306 59.2471 391.343 59.5205 391.343 59.9512ZM397.639 67.4263C397.639 67.5288 397.643 67.6108 397.649 67.6724C397.663 67.7271 397.687 67.792 397.721 67.8672C397.762 67.9424 397.831 68.0005 397.926 68.0415C398.022 68.0757 398.145 68.0928 398.295 68.0928C398.555 68.0928 398.777 68.1338 398.962 68.2158C399.146 68.2979 399.239 68.4209 399.239 68.585C399.239 69.3848 399.126 69.8838 398.9 70.082C398.312 70.0273 397.526 70 396.542 70C395.489 70 394.662 70.0273 394.061 70.082C393.835 69.877 393.722 69.3779 393.722 68.585C393.722 68.4209 393.814 68.2979 393.999 68.2158C394.184 68.1338 394.406 68.0928 394.666 68.0928C394.932 68.0928 395.106 68.0381 395.188 67.9287C395.271 67.8125 395.312 67.6519 395.312 67.4468V57.603C395.312 57.2407 395.206 56.9844 394.994 56.834C394.789 56.6836 394.389 56.5947 393.794 56.5674C393.705 56.5469 393.647 56.5024 393.62 56.4341C393.599 56.3657 393.589 56.2188 393.589 55.9932C393.589 55.6445 393.626 55.3369 393.702 55.0703C393.777 54.8037 393.852 54.6499 393.927 54.6089C394.495 54.6841 395.038 54.7217 395.558 54.7217C395.865 54.7217 396.19 54.7046 396.532 54.6704C396.874 54.6294 397.055 54.6089 397.075 54.6089C397.314 54.6089 397.468 54.6704 397.537 54.7935C397.612 54.9097 397.649 55.1831 397.649 55.6138C397.649 55.6274 397.649 55.6479 397.649 55.6753C397.643 56.6392 397.639 60.5562 397.639 67.4263ZM400.295 68.5952C400.295 68.1235 400.452 67.7271 400.767 67.4058C401.081 67.0845 401.542 66.9238 402.151 66.9238C402.746 66.9238 403.193 67.0879 403.494 67.416C403.795 67.7373 403.945 68.1304 403.945 68.5952C403.945 69.0532 403.795 69.4463 403.494 69.7744C403.193 70.1025 402.746 70.2666 402.151 70.2666C401.542 70.2666 401.081 70.106 400.767 69.7847C400.452 69.4565 400.295 69.0601 400.295 68.5952ZM414.825 61.5098C414.825 61.9131 414.681 62.2549 414.394 62.5352C414.114 62.8154 413.669 62.9556 413.061 62.9556C412.917 62.9556 412.829 62.9248 412.794 62.8633C412.767 62.7949 412.74 62.6206 412.712 62.3403L412.559 60.874C412.511 60.8398 412.442 60.8022 412.354 60.7612C412.271 60.7134 412.08 60.6519 411.779 60.5767C411.485 60.4946 411.174 60.4536 410.846 60.4536C409.807 60.4536 408.966 60.8569 408.324 61.6636C407.688 62.4634 407.37 63.417 407.37 64.5244C407.37 65.7207 407.681 66.6538 408.303 67.3237C408.925 67.9937 409.824 68.3286 411 68.3286C411.547 68.3286 412.142 68.2124 412.784 67.98C413.434 67.7476 413.963 67.4502 414.374 67.0879C414.763 67.5459 414.958 67.9834 414.958 68.4004C414.958 68.7422 414.756 69.0601 414.353 69.354C413.95 69.6479 413.43 69.8735 412.794 70.0308C412.166 70.1948 411.509 70.2769 410.826 70.2769C410.033 70.2769 409.284 70.1538 408.58 69.9077C407.883 69.6548 407.264 69.2925 406.724 68.8208C406.184 68.3423 405.757 67.7271 405.442 66.9751C405.128 66.2163 404.971 65.3618 404.971 64.4116C404.971 63.5298 405.135 62.7266 405.463 62.002C405.798 61.2705 406.239 60.6758 406.786 60.2178C407.333 59.7529 407.944 59.3975 408.621 59.1514C409.305 58.8984 410.005 58.772 410.723 58.772C411.455 58.772 412.09 58.8472 412.63 58.9976C413.177 59.1411 413.604 59.3428 413.912 59.6025C414.227 59.8623 414.456 60.1528 414.599 60.4741C414.75 60.7886 414.825 61.1338 414.825 61.5098ZM416.168 67.0264C415.84 66.2744 415.676 65.437 415.676 64.5142C415.676 63.5913 415.84 62.7573 416.168 62.0122C416.496 61.2671 416.934 60.6655 417.48 60.2075C418.027 59.7427 418.639 59.3872 419.316 59.1411C419.993 58.895 420.7 58.772 421.438 58.772C422.17 58.772 422.874 58.895 423.551 59.1411C424.228 59.3872 424.836 59.7427 425.376 60.2075C425.923 60.6655 426.36 61.2671 426.688 62.0122C427.017 62.7573 427.181 63.5913 427.181 64.5142C427.181 65.437 427.017 66.2744 426.688 67.0264C426.36 67.7715 425.923 68.3765 425.376 68.8413C424.836 69.3062 424.228 69.6616 423.551 69.9077C422.874 70.1538 422.17 70.2769 421.438 70.2769C420.7 70.2769 419.993 70.1538 419.316 69.9077C418.639 69.6616 418.027 69.3062 417.48 68.8413C416.934 68.3765 416.496 67.7715 416.168 67.0264ZM419.07 61.5713C418.407 62.2754 418.075 63.2563 418.075 64.5142C418.075 65.772 418.407 66.7563 419.07 67.4673C419.733 68.1714 420.516 68.5234 421.418 68.5234C421.849 68.5234 422.262 68.438 422.659 68.2671C423.055 68.0962 423.411 67.8501 423.725 67.5288C424.046 67.2007 424.303 66.7769 424.494 66.2573C424.686 65.7378 424.781 65.1567 424.781 64.5142C424.781 63.8716 424.686 63.2905 424.494 62.771C424.303 62.2515 424.046 61.8311 423.725 61.5098C423.411 61.1885 423.055 60.9424 422.659 60.7715C422.262 60.6006 421.849 60.5151 421.418 60.5151C420.516 60.5151 419.733 60.8672 419.07 61.5713ZM431.908 59.9512V60.5151C432.4 60.0024 432.988 59.5854 433.671 59.2642C434.362 58.936 435.042 58.772 435.712 58.772C436.32 58.772 436.871 58.9224 437.363 59.2231C437.862 59.5239 438.262 59.9888 438.562 60.6177C439.171 60.0708 439.851 59.6299 440.603 59.2949C441.362 58.9531 442.086 58.7822 442.777 58.7822C443.707 58.7822 444.462 59.1206 445.043 59.7974C445.624 60.4741 445.915 61.5337 445.915 62.9761V67.375C445.915 67.8193 446.089 68.0552 446.438 68.0825C446.506 68.0894 446.598 68.0962 446.714 68.103C446.837 68.1099 446.933 68.1167 447.001 68.1235C447.07 68.1304 447.155 68.1406 447.258 68.1543C447.36 68.1611 447.442 68.1714 447.504 68.1851C447.565 68.1919 447.634 68.2056 447.709 68.2261C447.784 68.2397 447.842 68.2568 447.883 68.2773C447.931 68.2979 447.976 68.3218 448.017 68.3491C448.058 68.3765 448.085 68.4106 448.099 68.4517C448.119 68.4858 448.129 68.5269 448.129 68.5747C448.129 69.3745 448.017 69.877 447.791 70.082C446.991 70.0273 446.301 70 445.72 70C445.385 70 445.04 70.0137 444.684 70.041C444.329 70.0684 444.083 70.082 443.946 70.082C443.707 70.082 443.587 69.8188 443.587 69.2925V63.1606C443.587 62.272 443.443 61.6226 443.156 61.2124C442.869 60.7954 442.493 60.5869 442.028 60.5869C441.563 60.5869 441.051 60.7271 440.49 61.0073C439.93 61.2808 439.403 61.6362 438.911 62.0737C438.945 62.3813 438.962 62.6821 438.962 62.9761V67.375C438.962 67.8193 439.133 68.0552 439.475 68.0825C439.543 68.0894 439.632 68.0962 439.742 68.103C439.858 68.1099 439.947 68.1167 440.008 68.1235C440.077 68.1304 440.159 68.1406 440.254 68.1543C440.35 68.1611 440.425 68.1714 440.48 68.1851C440.535 68.1919 440.596 68.2056 440.665 68.2261C440.74 68.2397 440.798 68.2568 440.839 68.2773C440.88 68.2979 440.917 68.3218 440.952 68.3491C440.993 68.3765 441.02 68.4106 441.034 68.4517C441.054 68.4858 441.064 68.5269 441.064 68.5747C441.064 69.3745 440.952 69.877 440.726 70.082C440.07 70.0273 439.468 70 438.921 70C438.58 70 438.204 70.0137 437.793 70.041C437.383 70.0684 437.113 70.082 436.983 70.082C436.751 70.082 436.635 69.8188 436.635 69.2925V63.1606C436.635 62.272 436.491 61.6226 436.204 61.2124C435.917 60.7954 435.541 60.5869 435.076 60.5869C434.611 60.5869 434.102 60.7305 433.548 61.0176C432.995 61.3047 432.479 61.6738 432 62.125V67.4263C432 67.522 432.007 67.604 432.021 67.6724C432.034 67.7339 432.062 67.8022 432.103 67.8774C432.144 67.9458 432.212 68.0005 432.308 68.0415C432.41 68.0757 432.537 68.0928 432.687 68.0928C432.947 68.0928 433.169 68.1338 433.354 68.2158C433.538 68.2979 433.63 68.4209 433.63 68.585C433.63 69.3848 433.518 69.8838 433.292 70.082C432.622 70.0273 431.795 70 430.811 70C429.751 70 428.965 70.0273 428.452 70.082C428.227 69.877 428.114 69.3779 428.114 68.585C428.114 68.4209 428.206 68.2979 428.391 68.2158C428.575 68.1338 428.797 68.0928 429.057 68.0928C429.296 68.0928 429.457 68.0449 429.539 67.9492C429.628 67.8535 429.672 67.686 429.672 67.4468V61.9404C429.672 61.5781 429.566 61.3218 429.354 61.1714C429.149 61.021 428.75 60.9321 428.155 60.9048C428.066 60.8843 428.008 60.8398 427.98 60.7715C427.96 60.7031 427.95 60.5562 427.95 60.3306C427.95 59.9819 427.987 59.6743 428.062 59.4077C428.138 59.1411 428.213 58.9873 428.288 58.9463C428.814 59.0215 429.324 59.0591 429.816 59.0591C430.124 59.0591 430.448 59.042 430.79 59.0078C431.132 58.9668 431.313 58.9463 431.333 58.9463C431.573 58.9463 431.727 59.0078 431.795 59.1309C431.87 59.2471 431.908 59.5205 431.908 59.9512Z" fill="#C08A00"/>
<a href="mailto:antiquebars@gmail.com">
<rect fill="black" fill-opacity="0" y="-0.245117" width="247.375" height="29.4902"/>
</a>
<path d="M19.6089 88.3032V77.7109C19.6089 77.6357 19.6055 77.5776 19.5986 77.5366C19.5918 77.4956 19.5679 77.4546 19.5269 77.4136C19.4927 77.3726 19.438 77.3521 19.3628 77.3521C19.0415 77.3521 18.5732 77.3521 17.958 77.3521C17.3496 77.3452 16.9121 77.3418 16.6455 77.3418C16.584 77.4785 16.4814 77.8203 16.3379 78.3672C16.2012 78.9072 16.061 79.3823 15.9175 79.7925C15.7739 80.2026 15.644 80.4077 15.5278 80.4077C15.2681 80.4077 15.0356 80.3735 14.8306 80.3052C14.6323 80.2368 14.4785 80.1548 14.3691 80.0591C14.2666 79.9565 14.188 79.8643 14.1333 79.7822C14.0854 79.6934 14.0615 79.625 14.0615 79.5771C14.0615 79.3447 14.188 78.6406 14.4409 77.4648C14.6938 76.2891 14.8682 75.6533 14.9639 75.5576C14.9844 75.5576 15.0049 75.561 15.0254 75.5679C15.0459 75.5679 15.0664 75.5679 15.0869 75.5679C17.1172 75.7388 19.021 75.8242 20.7983 75.8242C22.5688 75.8242 24.4692 75.7388 26.4995 75.5679C26.52 75.5679 26.5405 75.5679 26.561 75.5679C26.5815 75.561 26.6021 75.5576 26.6226 75.5576C26.7183 75.6533 26.8926 76.2891 27.1455 77.4648C27.3984 78.6406 27.5249 79.3447 27.5249 79.5771C27.5249 79.625 27.4976 79.6934 27.4429 79.7822C27.395 79.8643 27.3164 79.9565 27.207 80.0591C27.1045 80.1548 26.9507 80.2368 26.7456 80.3052C26.5474 80.3735 26.3184 80.4077 26.0586 80.4077C25.9424 80.4077 25.8125 80.2026 25.6689 79.7925C25.5254 79.3823 25.3818 78.9072 25.2383 78.3672C25.1016 77.8203 25.0024 77.4785 24.9409 77.3418C24.6743 77.3418 24.2334 77.3452 23.6182 77.3521C23.0098 77.3521 22.5449 77.3521 22.2236 77.3521C22.1143 77.3521 22.0459 77.3828 22.0186 77.4443C21.9912 77.5059 21.9775 77.5947 21.9775 77.7109V88.2827C21.9775 88.3853 21.981 88.4673 21.9878 88.5288C22.0015 88.5835 22.0254 88.6484 22.0596 88.7236C22.1006 88.7988 22.1689 88.8569 22.2646 88.8979C22.3604 88.9321 22.4834 88.9492 22.6338 88.9492C22.9482 88.9492 23.2183 88.9902 23.4438 89.0723C23.6694 89.1543 23.7822 89.2773 23.7822 89.4414C23.7822 90.3506 23.6694 90.9077 23.4438 91.1128C22.4185 91.0376 21.54 91 20.8086 91C20.0908 91 19.2056 91.0376 18.1528 91.1128C17.9272 90.9077 17.8145 90.3506 17.8145 89.4414C17.8145 89.2773 17.9272 89.1543 18.1528 89.0723C18.3784 88.9902 18.6484 88.9492 18.9629 88.9492C19.2295 88.9492 19.4038 88.8945 19.4858 88.7852C19.5679 88.6689 19.6089 88.5083 19.6089 88.3032ZM27.8838 88.0264C27.5557 87.2744 27.3916 86.437 27.3916 85.5142C27.3916 84.5913 27.5557 83.7573 27.8838 83.0122C28.2119 82.2671 28.6494 81.6655 29.1963 81.2075C29.7432 80.7427 30.355 80.3872 31.0317 80.1411C31.7085 79.895 32.416 79.772 33.1543 79.772C33.8857 79.772 34.5898 79.895 35.2666 80.1411C35.9434 80.3872 36.5518 80.7427 37.0918 81.2075C37.6387 81.6655 38.0762 82.2671 38.4043 83.0122C38.7324 83.7573 38.8965 84.5913 38.8965 85.5142C38.8965 86.437 38.7324 87.2744 38.4043 88.0264C38.0762 88.7715 37.6387 89.3765 37.0918 89.8413C36.5518 90.3062 35.9434 90.6616 35.2666 90.9077C34.5898 91.1538 33.8857 91.2769 33.1543 91.2769C32.416 91.2769 31.7085 91.1538 31.0317 90.9077C30.355 90.6616 29.7432 90.3062 29.1963 89.8413C28.6494 89.3765 28.2119 88.7715 27.8838 88.0264ZM30.7856 82.5713C30.1226 83.2754 29.791 84.2563 29.791 85.5142C29.791 86.772 30.1226 87.7563 30.7856 88.4673C31.4487 89.1714 32.2314 89.5234 33.1338 89.5234C33.5645 89.5234 33.978 89.438 34.3745 89.2671C34.771 89.0962 35.1265 88.8501 35.4409 88.5288C35.7622 88.2007 36.0186 87.7769 36.21 87.2573C36.4014 86.7378 36.4971 86.1567 36.4971 85.5142C36.4971 84.8716 36.4014 84.2905 36.21 83.771C36.0186 83.2515 35.7622 82.8311 35.4409 82.5098C35.1265 82.1885 34.771 81.9424 34.3745 81.7715C33.978 81.6006 33.5645 81.5151 33.1338 81.5151C32.2314 81.5151 31.4487 81.8672 30.7856 82.5713ZM43.3774 85.0117V88.0981C43.7397 88.5562 44.2114 88.9116 44.7925 89.1646C45.3804 89.4175 45.9922 89.5439 46.6279 89.5439C47.4961 89.5439 48.2173 89.2021 48.7915 88.5186C49.3726 87.835 49.6631 86.8335 49.6631 85.5142C49.6631 84.2495 49.3486 83.2686 48.7197 82.5713C48.0977 81.8672 47.3491 81.5151 46.4741 81.5151C45.6538 81.5151 44.9326 81.8262 44.3105 82.4482C43.6885 83.0635 43.3774 83.918 43.3774 85.0117ZM43.3774 90.0669V92.5894C43.3774 92.6919 43.3809 92.7705 43.3877 92.8252C43.4014 92.8867 43.4253 92.9551 43.4595 93.0303C43.5005 93.1055 43.5688 93.1602 43.6646 93.1943C43.7603 93.2354 43.8833 93.2559 44.0337 93.2559C44.2935 93.2559 44.5156 93.2969 44.7002 93.3789C44.8848 93.4609 44.9771 93.584 44.9771 93.748C44.9771 94.5479 44.8643 95.0469 44.6387 95.2451C44.1807 95.1426 43.4082 95.0913 42.3213 95.0913C41.1523 95.0913 40.3115 95.1426 39.7988 95.2451C39.5732 95.04 39.4604 94.541 39.4604 93.748C39.4604 93.584 39.5527 93.4609 39.7373 93.3789C39.9219 93.2969 40.144 93.2559 40.4038 93.2559C40.6704 93.2559 40.8447 93.1978 40.9268 93.0815C41.0088 92.9722 41.0498 92.8149 41.0498 92.6099V82.9404C41.0498 82.5781 40.9438 82.3218 40.7319 82.1714C40.5269 82.021 40.127 81.9321 39.5322 81.9048C39.4434 81.8843 39.3853 81.8398 39.3579 81.7715C39.3374 81.7031 39.3271 81.5562 39.3271 81.3306C39.3271 80.9819 39.3647 80.6743 39.4399 80.4077C39.5151 80.1411 39.5903 79.9873 39.6655 79.9463C40.1919 80.0215 40.7012 80.0591 41.1934 80.0591C41.501 80.0591 41.8257 80.042 42.1675 80.0078C42.5093 79.9668 42.6904 79.9463 42.7109 79.9463C42.9502 79.9463 43.104 80.0078 43.1724 80.1309C43.2476 80.2471 43.2852 80.5205 43.2852 80.9512V81.6895C43.6406 81.0742 44.1431 80.6025 44.7925 80.2744C45.4419 79.9395 46.1152 79.772 46.8125 79.772C47.4893 79.772 48.1353 79.895 48.7505 80.1411C49.3726 80.3872 49.9331 80.7427 50.4321 81.2075C50.9312 81.6655 51.3276 82.2671 51.6216 83.0122C51.9224 83.7573 52.0728 84.5913 52.0728 85.5142C52.0728 86.437 51.9224 87.2744 51.6216 88.0264C51.3208 88.7715 50.9175 89.3765 50.4116 89.8413C49.9126 90.3062 49.3486 90.6616 48.7197 90.9077C48.0908 91.1538 47.4346 91.2769 46.751 91.2769C45.3906 91.2769 44.2661 90.8735 43.3774 90.0669Z" fill="#C08A00"/>
<path d="M29.9531 50.4297H32.2969C33.1875 51.3516 34.2734 52.5547 35.5547 54.0391C36.8359 55.5234 37.7188 56.5703 38.2031 57.1797C38.3906 57.4141 38.6016 57.6797 38.8359 57.9766C39.0859 58.2734 39.2812 58.5078 39.4219 58.6797C39.5625 58.8359 39.7031 59.0156 39.8438 59.2188C39.9844 59.4062 40.0859 59.5781 40.1484 59.7344C40.2109 59.875 40.2422 60.0156 40.2422 60.1562C40.2422 60.6562 40.1094 61.0234 39.8438 61.2578C39.5781 61.4766 39.1094 61.5859 38.4375 61.5859C37.9219 61.5859 37.4844 61.5156 37.125 61.375C36.7656 61.2188 36.4922 61.0469 36.3047 60.8594C36.1328 60.6719 35.8594 60.3438 35.4844 59.875L31.2422 54.4609L27 59.875C26.625 60.3438 26.3438 60.6719 26.1562 60.8594C25.9844 61.0469 25.7188 61.2188 25.3594 61.375C25 61.5156 24.5625 61.5859 24.0469 61.5859C23.2969 61.5859 22.7656 61.4766 22.4531 61.2578C22.1562 61.0234 22.0078 60.6562 22.0078 60.1562C22.0078 60.0156 22.0391 59.875 22.1016 59.7344C22.1641 59.5781 22.2656 59.4062 22.4062 59.2188C22.5469 59.0156 22.6875 58.8359 22.8281 58.6797C22.9688 58.5078 23.1562 58.2734 23.3906 57.9766C23.6406 57.6797 23.8594 57.4141 24.0469 57.1797C24.5625 56.5234 25.4453 55.4609 26.6953 53.9922C27.9609 52.5234 29.0469 51.3359 29.9531 50.4297Z" fill="#C08A00"/>
</svg>
